# xmcd
#
# Track frame offsets: 
#        150
#        9455
#        26179
#        42259
#        61622
#        82190
#        103376
#        114909
#        142993
#        157752
#        178658
#        201499
#
# Disc length: 3027 seconds
#
# Revision: 0
# Processed by: cddbd v1.5.2PL0 Copyright (c) Steve Scherf et al.
# Submitted via: ExactAudioCopy v0.99pb5
#
DISCID=9c0bd10c
DTITLE=Ross Neilsen - Alone Vol.1
DYEAR=2009
DGENRE=Blues
TTITLE0=Early Grave
TTITLE1=Walk On By
TTITLE2=Mailman
TTITLE3=Let It Ride
TTITLE4=She Ain't You
TTITLE5=Dust My Broom
TTITLE6=Dimples
TTITLE7=Let You Down
TTITLE8=Jelly Bean
TTITLE9=Badlands
TTITLE10=Walk In The Sun
TTITLE11=Devil Knows You're Dead
EXTD=
EXTT0=
EXTT1=
EXTT2=
EXTT3=
EXTT4=
EXTT5=
EXTT6=
EXTT7=
EXTT8=
EXTT9=
EXTT10=
EXTT11=
PLAYORDER=
